<?xml version="1.0" encoding="utf-8"?>
<!-- Generator: Adobe Illustrator 16.0.0, SVG Export Plug-In . SVG Version: 6.00 Build 0)  -->
<!DOCTYPE svg PUBLIC "-//W3C//DTD SVG 1.1//EN" "http://www.w3.org/Graphics/SVG/1.1/DTD/svg11.dtd">
<svg version="1.1" id="Layer_1" xmlns="http://www.w3.org/2000/svg" xmlns:xlink="http://www.w3.org/1999/xlink" x="0px" y="0px"
	 width="100px" height="100px" viewBox="0 0 100 100" enable-background="new 0 0 100 100" xml:space="preserve">
<g>
	<path fill="#6D5421" d="M87.339,35.146c-3.821-8.212-10.381-15.091-18.386-19.324c-12.107-6.577-27.417-6.561-39.551-0.051
		c-7.141,3.837-13.175,9.719-17.093,16.825C8.1,40.104,6.417,48.878,7.155,57.432c0.398,2.692,0.974,5.362,1.667,7.993
		c-0.452-2.631-1.044-5.254-1.169-7.926C6.618,42.85,14.273,28,26.83,20.392c8.601-5.372,19.248-7.354,29.194-5.352
		c8.438,1.641,16.3,6.035,22.115,12.36c6.365,6.893,10.243,16.04,10.696,25.416c0.433,8.138-1.689,16.364-5.93,23.317
		c-2.56,4.217-5.916,7.935-9.799,10.976c-1.884-0.958-3.799-1.861-5.785-2.569c-0.857-0.313-1.711-0.608-2.582-0.879
		c-5.251-1.623-10.756-2.314-16.243-2.292c-0.274-2.232-0.449-4.477-0.456-6.724c0.832-0.215,1.669-0.427,2.501-0.651
		c0.677,0.459,1.358,0.937,2.037,1.419c-0.117-0.531-0.352-1.592-0.468-2.119c0.23,0.278,0.691,0.832,0.921,1.11
		c1.23-0.874,2.603-1.489,4.097-1.736c3.388-0.374,5.216-3.505,7.96-5.118c-1.971,0.092-3.938-0.035-5.892-0.296
		c1.313-0.409,2.682-0.669,3.918-1.291c0.906-0.618,1.339-1.691,1.947-2.564c-1.384,0.61-2.872,1.011-4.283,0.25
		c0.705-0.106,1.417-0.203,2.128-0.295c0.48-1.451,0.941-2.912,1.357-4.377c-1.221,0.891-2.506,1.71-3.945,2.214
		c1.078-1.492,2.511-2.664,4.162-3.469c-0.15-1.227-0.306-2.444-0.46-3.665c-1.361,1.057-2.708,2.134-4.123,3.12
		c0.496-2.118,1.871-3.832,2.915-5.691c0.663,0.033,1.33,0.072,1.993,0.118c-1.173-0.458-2.342-0.929-3.51-1.398
		c0.165-0.812,0.308-1.621,0.43-2.43l-0.56,0.077c-1.618,0.984-3.289,1.952-5.196,2.226c1.718-1.854,3.521-3.688,4.574-6.028
		c-1.5,0.701-2.896,1.726-4.552,1.99c-0.988,0.307-1.43-0.738-2.003-1.297c0.386-0.602,0.771-1.209,1.154-1.815
		c0.873-0.258,1.749-0.51,2.625-0.76c-0.311-0.045-0.941-0.126-1.259-0.171c0.548-1.553,1.062-3.122,1.456-4.727
		c-1.488,0.913-2.977,1.824-4.487,2.692c-0.4-0.431-0.799-0.858-1.19-1.279c0.851-0.404,1.701-0.811,2.553-1.216
		c0.186-1.165,0.372-2.333,0.553-3.501c-1.449,1.051-2.889,2.121-4.458,2.98c1.646-1.425,3.255-2.97,4.125-5.02
		c-1.569,0.758-3.146,1.531-4.847,1.946c1.017-1.214,2.182-2.281,3.336-3.357c-1.427,0.272-2.873,0.659-4.326,0.402
		c0.529-0.077,1.598-0.226,2.133-0.298c0.044-0.325,0.126-0.959,0.169-1.279c0.652-0.461,1.297-0.933,1.943-1.405
		c-0.618,0.073-1.851,0.209-2.469,0.28c0.82-0.75,1.631-1.522,2.404-2.319c-1.408,0.36-2.775,0.854-4.128,1.4
		c0.789-1.61,1.686-3.186,3.099-4.334c-1.242,0.569-2.52,1.068-3.798,1.537c0.689-0.962,1.421-1.897,2.178-2.812
		c-1.029,0.618-2.113,1.126-3.243,1.5c0.234,0.191,0.709,0.567,0.945,0.761c-0.598,0.392-1.19,0.782-1.777,1.175
		c0.14,0.677,0.289,1.357,0.439,2.041c-0.375,0.087-1.118,0.256-1.491,0.346c-0.355-0.299-1.073-0.882-1.429-1.177
		c0.793,1.745,1.863,3.34,3.021,4.863c-1.025-0.438-2.035-0.902-3.025-1.403c0.683,1.033,1.108,2.196,1.114,3.457
		c-0.876-0.209-1.741-0.417-2.598-0.643c-0.114,0.253-0.334,0.763-0.45,1.015c-0.498,0.276-1.006,0.539-1.496,0.83
		c1.021,0.083,2.039,0.187,3.066,0.28c-1.102,0.633-2.214,1.263-3.253,1.98c1.224-0.229,2.44-0.543,3.644-0.876
		c0.289,0.815,0.583,1.63,0.886,2.446c-1.396-0.268-2.789-0.508-4.196-0.644c1.012,1.476,2.806,1.938,4.355,2.641
		c-2.702,0.455-4.501-1.69-6.555-2.989c0.438,1.846,2.159,2.914,2.779,4.662c-0.889-0.447-1.799-0.829-2.725-1.168
		c0.344,0.617,1.033,1.85,1.379,2.468c0.443-0.067,1.336-0.204,1.783-0.271c-0.087,1.028-0.809,1.545-1.718,1.833
		c-0.961-0.311-1.932-0.589-2.909-0.837c0.529,0.482,1.065,0.959,1.606,1.435c0.111,0.575,0.222,1.153,0.335,1.734
		c0.258,0.185,0.771,0.551,1.028,0.732c-1.187-0.519-2.375-1.132-3.705-1.169c0.515,1.055,1.33,1.875,2.463,2.247
		c-0.799,0.323-2.71-0.204-2.599,1.008c0.924,1.094,2.331,1.116,3.65,1.11c0.114,0.37,0.344,1.114,0.458,1.488
		c-2.02,0.087-4.667-0.505-4.956-2.889l-0.262-0.219c-2.206,0.809-0.148,2.834,0.509,4.031c-1.029-0.346-2.058-0.677-3.091-0.993
		c0.709,1.119,1.47,2.22,2.253,3.297c-0.935,0.215-1.864,0.439-2.796,0.669c1.779,1.505,3.67,2.873,5.445,4.395
		c-1.736,0.02-3.426-0.396-5.047-0.986c0.122,0.975,0.229,1.949,0.335,2.928c0.323,0.206,0.645,0.417,0.972,0.624
		c-0.551,0.414-1.169,0.776-1.602,1.321c0.805,0.996,1.734,1.879,2.598,2.824c-1.734,0.109-3.167-0.81-4.432-1.873
		c0.183,1.07,0.35,2.142,0.527,3.216c0.876,0.629,1.75,1.262,2.626,1.896c0.34-0.212,1.017-0.628,1.356-0.836
		c-0.641,0.913-1.553,1.516-2.594,1.893c2.293,0.049,4.564,0.334,6.829,0.657c-0.848,0.502-1.702,0.996-2.56,1.483
		c1.98,0.135,3.796,0.936,5.469,1.963l0.504-0.46c1.265-0.491,2.615-0.677,3.957-0.858c0.36,2.255,0.332,4.547-0.081,6.796
		c-5.154,0.323-10.272,1.346-15.081,3.238c-0.339,0.136-1.022,0.421-1.368,0.559c-2.816,1.24-5.461,2.851-7.905,4.716
		c14.652-9.197,34.003-9.191,49.407-1.812c-2.518,1.981-5.45,3.29-8.345,4.609c11.9-4.111,21.611-13.856,25.72-25.744
		C92.614,56.721,92.038,45.013,87.339,35.146z"/>
	<g>
		<path fill="#CD6528" d="M39.212,72.517c-2.265-0.323-4.536-0.608-6.829-0.657c1.041-0.377,1.954-0.979,2.594-1.893
			c-0.339,0.208-1.017,0.624-1.356,0.836c-0.876-0.635-1.75-1.268-2.626-1.896c-0.177-1.074-0.344-2.146-0.527-3.216
			c1.265,1.063,2.698,1.982,4.432,1.873c-0.864-0.945-1.793-1.828-2.598-2.824c0.433-0.545,1.051-0.907,1.602-1.321
			c-0.327-0.207-0.649-0.418-0.972-0.624c-0.106-0.979-0.213-1.953-0.335-2.928c1.621,0.591,3.311,1.006,5.047,0.986
			c-1.775-1.521-3.666-2.89-5.445-4.395c0.932-0.229,1.861-0.454,2.796-0.669c-0.783-1.077-1.543-2.178-2.253-3.297
			c1.033,0.316,2.062,0.647,3.091,0.993c-0.657-1.197-2.715-3.222-0.509-4.031l0.262,0.219c0.289,2.384,2.936,2.976,4.956,2.889
			c-0.114-0.374-0.344-1.118-0.458-1.488c-1.319,0.006-2.726-0.017-3.65-1.11c-0.111-1.211,1.8-0.685,2.599-1.008
			c-1.133-0.373-1.948-1.192-2.463-2.247c-0.787,0.573-1.543,1.186-2.297,1.804c0.864-1.047,1.653-2.156,2.34-3.325
			c-1.208,0.348-2.411,0.732-3.61,1.121c0.737-0.821,1.474-1.637,2.206-2.458c-0.864,0.008-1.712,0.022-2.572,0.041
			c0.809-0.64,1.621-1.289,2.43-1.931c-0.327-0.08-0.983-0.23-1.312-0.304c0.448-0.486,0.895-0.978,1.35-1.459
			c-0.931,0.171-1.86,0.339-2.792,0.502c0.657-1.116,1.38-2.182,2.2-3.178c-0.793,0.378-1.598,0.738-2.396,1.106
			c0.277-0.75,0.557-1.492,0.836-2.232c-1.549,1.285-2.725,2.955-3.207,4.935c-0.563-0.307-1.126-0.608-1.683-0.903
			c0.605,1.106,1.214,2.21,1.826,3.32c-0.372-0.015-1.11-0.036-1.482-0.053c0.162,0.677,0.323,1.356,0.492,2.04
			c-0.797-0.125-1.585-0.24-2.381-0.36c-0.12,0.787-0.24,1.574-0.35,2.363c-0.224,0.317-0.447,0.641-0.671,0.964
			c0.819-0.202,1.645-0.398,2.499-0.454c0.175,0.372,0.525,1.114,0.702,1.488c-1.252,0.022-2.495,0.032-3.743,0.026L24.04,49.93
			c0.338,0.641,0.684,1.285,1.041,1.922c-0.319,0.168-0.966,0.504-1.289,0.666c0.116,0.193,0.352,0.563,0.466,0.757
			c0.643,0.496,1.619,0.781,1.73,1.723c-1.083,0.144-2.163-0.062-3.218-0.252c0.466,0.775,0.927,1.565,1.384,2.354
			c-0.683-0.082-1.366-0.17-2.047-0.252c0.09,0.579,0.183,1.159,0.274,1.744c-0.229,0.229-0.693,0.702-0.925,0.936
			c1.254,0.559,2.491,1.159,3.639,1.916c-1.789,0.219-3.376-0.497-4.438-1.931c-0.25,0.082-0.745,0.25-0.995,0.332
			c0.456,0.695,0.909,1.396,1.366,2.096c-0.485-0.01-1.448-0.028-1.929-0.032c0.437,0.821,0.88,1.646,1.317,2.474
			c-0.722,0.114-1.443,0.23-2.166,0.349c1.45,1.154,2.872,2.348,4.223,3.616c-1.389-0.191-2.769-0.414-4.147-0.654
			c0.372,1.021,0.563,2.156,1.22,3.041c0.744,0.426,1.634,0.454,2.456,0.656c-0.366,0.094-0.726,0.189-1.088,0.289
			c-0.919-0.294-1.832-0.584-2.753-0.875c0.625,1.038,1.249,2.075,1.85,3.13c-1.093-0.433-2.171-0.885-3.245-1.355
			c0.22,0.826,0.434,1.645,0.653,2.479c0.809,0.483,1.618,0.978,2.43,1.478c-0.309,0.239-0.614,0.479-0.915,0.726
			c1.437,0.158,2.879,0.324,4.323,0.479c-0.136,0.313-0.411,0.928-0.547,1.236c1.011,0.451,2.007,0.986,3.096,1.261
			c1.304-0.016,2.566-0.449,3.874-0.519c0.832,1.662,0.268,3.709,0.372,5.52c0.346-0.138,1.029-0.423,1.368-0.559
			c-0.165-1.755-0.268-3.517-0.307-5.28c1.665,0.022,3.397,0.159,4.957-0.559c2.036-0.913,4.492-1.125,6.051-2.877
			c-1.673-1.027-3.489-1.828-5.469-1.963C37.51,73.513,38.364,73.019,39.212,72.517z"/>
		<path fill="#CD6528" d="M80.695,73.923c-1.355-0.079-2.713-0.177-4.071-0.274c1.32-0.536,2.671-1.084,3.716-2.09l0.038-0.65
			c-0.788,0.061-1.563,0.119-2.342,0.19c1.019-1.187,1.778-2.567,2.26-4.056c-1.045,0.527-2.077,1.073-3.112,1.604
			c0.657-0.793,1.324-1.586,2.003-2.368c-0.227-0.448-0.445-0.902-0.663-1.353c0.592,0.145,1.188,0.286,1.79,0.428
			c-0.078-0.772-0.149-1.538-0.214-2.298c-1.117,0.634-2.229,1.274-3.331,1.913c0.621-1.263,1.245-2.524,1.864-3.795
			c-1.364,0.356-2.732,0.7-4.107,0.988c1.52-1.295,3.517-2.328,4.002-4.442c-1.569,0.56-3.11,1.194-4.665,1.796
			c1.138-1.422,2.192-2.91,3.114-4.479c-1.56,0.643-3.171,1.354-4.904,1.13c0.022-0.35,0.063-1.048,0.083-1.4
			c1.618-1.367,2.444-3.322,3.036-5.307c-1.466,0.734-3.016,1.314-4.656,1.479c0.679-0.679,1.373-1.342,2.084-1.993
			c0.12-0.787,0.24-1.575,0.362-2.358c-0.733,0.488-1.468,0.98-2.194,1.466c0.567-0.929,1.132-1.858,1.695-2.79
			c-1.187,0.336-2.364,0.679-3.539,1.013c0.75-0.815,1.505-1.625,2.255-2.44c-0.817,0.022-1.631,0.045-2.445,0.069
			c0.728-0.64,1.455-1.28,2.182-1.921c-0.285-0.085-0.858-0.254-1.144-0.335c0.378-0.482,0.754-0.966,1.138-1.442
			c-0.89,0.161-1.79,0.32-2.681,0.476c0.607-0.978,1.248-1.942,1.925-2.871c-0.892,0.235-1.782,0.476-2.679,0.699
			c0.557-0.677,1.138-1.34,1.701-2.013c-0.755,0.476-1.588,0.858-2.251,1.462c-0.705,0.939-0.791,2.177-1.131,3.271
			c-0.597-0.229-1.188-0.453-1.778-0.679c0.646,1.188,1.361,2.336,2.149,3.436c-0.403-0.055-1.212-0.168-1.618-0.229
			c0.018,0.492,0.051,1.477,0.064,1.964c-0.663-0.1-1.317-0.203-1.974-0.301c-0.243,0.504-0.477,1.007-0.706,1.517
			c0.295,0.03,0.88,0.092,1.177,0.126c0.541,0.958,1.077,1.925,1.612,2.887c-0.929-0.131-1.854-0.256-2.779-0.382
			c0.291-0.684,0.58-1.363,0.876-2.045c-0.316,0.024-0.943,0.085-1.254,0.114c-0.104,0.055-0.31,0.159-0.415,0.213l0.56-0.077
			c-0.122,0.809-0.265,1.619-0.43,2.43c1.168,0.469,2.337,0.94,3.51,1.398c-0.663-0.046-1.33-0.085-1.993-0.118
			c-1.044,1.859-2.419,3.573-2.915,5.691c1.415-0.986,2.762-2.063,4.123-3.12c0.154,1.221,0.31,2.438,0.46,3.665
			c-1.651,0.805-3.084,1.977-4.162,3.469c1.439-0.504,2.725-1.323,3.945-2.214c-0.416,1.465-0.877,2.926-1.357,4.377
			c-0.711,0.092-1.423,0.188-2.128,0.295c1.411,0.761,2.899,0.36,4.283-0.25c-0.608,0.873-1.041,1.946-1.947,2.564
			c-1.236,0.622-2.604,0.882-3.918,1.291c1.954,0.261,3.921,0.388,5.892,0.296c-2.744,1.613-4.572,4.744-7.96,5.118
			c-0.863,0.408-1.707,0.862-2.549,1.304l0.278,0.696c-0.398,0-1.191,0.006-1.592,0.011c0.739,0.699,1.482,1.395,2.228,2.096
			c-0.28,0.104-0.839,0.305-1.118,0.409c1.818,0.209,3.641,0.423,5.462,0.646c-0.553,0.34-1.116,0.673-1.663,1.019
			c1.15,0.516,2.274,1.147,3.523,1.412c1.42,0.004,2.813-0.404,4.213-0.635c0.07,1.353,0.152,2.702,0.17,4.054
			c-0.336,0-1.006-0.01-1.342-0.018c0.871,0.271,1.725,0.565,2.582,0.879c-0.126-1.666-0.229-3.332-0.321-5.004
			c2.873,0.057,5.575-0.917,8.245-1.832C77.44,77.078,78.901,75.208,80.695,73.923z"/>
	</g>
</g>
</svg>
